<svg width="24" height="24" viewBox="0 0 24 24" fill="none" xmlns="http://www.w3.org/2000/svg">
<g clip-path="url(#clip0_0_22)">
<path d="M11.8173 8.19904L15.2529 11.6346L15.2693 11.4547C15.2693 9.6496 13.8023 8.18268 11.9973 8.18268L11.8173 8.19904Z" fill="black"/>
<path d="M11.9973 6.00142C15.0075 6.00142 17.4506 8.44451 17.4506 11.4547C17.4506 12.1582 17.3088 12.829 17.0634 13.4452L20.2536 16.6354C21.9005 15.2611 23.1984 13.4834 24 11.4547C22.1078 6.66675 17.4561 3.27478 11.9973 3.27478C10.4704 3.27478 9.00894 3.54743 7.65106 4.03823L10.0069 6.38858C10.623 6.14866 11.2938 6.00142 11.9973 6.00142Z" fill="black"/>
<path d="M1.09064 3.02933L3.57735 5.51603L4.07362 6.0123C2.27403 7.41925 0.850716 9.28976 0 11.4547C1.88686 16.2427 6.54397 19.6346 11.9973 19.6346C13.6878 19.6346 15.302 19.3074 16.7799 18.713L17.2434 19.1766L20.4227 22.3613L21.8133 20.9762L2.48124 1.63873L1.09064 3.02933ZM7.12203 9.05525L8.8071 10.7403C8.75802 10.9748 8.72531 11.2093 8.72531 11.4547C8.72531 13.2597 10.1922 14.7267 11.9973 14.7267C12.2427 14.7267 12.4772 14.6939 12.7062 14.6449L14.3913 16.3299C13.666 16.6899 12.8589 16.908 11.9973 16.908C8.98706 16.908 6.54397 14.4649 6.54397 11.4547C6.54397 10.5931 6.76212 9.78597 7.12203 9.05525Z" fill="black"/>
</g>
<defs>
<clipPath id="clip0_0_22">
<rect width="24" height="24" fill="white"/>
</clipPath>
</defs>
</svg>
